<svg xmlns="http://www.w3.org/2000/svg" viewBox="0 0 900 350" role="img" aria-label="PERSON5 command hero card background">
  <defs>
    <linearGradient id="heroRed" x1="0" y1="0" x2="1" y2="1">
      <stop offset="0" stop-color="#e60012"/>
      <stop offset="1" stop-color="#a60000"/>
    </linearGradient>
    <filter id="heroRough" x="-4%" y="-4%" width="108%" height="108%">
      <feTurbulence type="fractalNoise" baseFrequency=".035" numOctaves="2" seed="15"/>
      <feDisplacementMap in="SourceGraphic" scale="1.5"/>
    </filter>
    <path id="star" d="M50 0 61 35 98 35 68 57 79 91 50 70 21 91 32 57 2 35 39 35Z"/>
  </defs>

  <g transform="rotate(-2 450 175)">
    <polygon
      points="0,140 135,87.5 90,17.5 315,70 405,0 495,87.5 765,-17.5 675,122.5 945,70 810,192.5 900,262.5 720,227.5 765,332.5 540,262.5 405,350 315,280 135,332.5 180,227.5 0,280 45,192.5"
      fill="#050505"
      transform="translate(10 12)"
    />
    <polygon
      points="18,147 144,98 108,31.5 315,80.5 405,14 486,94.5 738,17.5 657,126 882,87.5 792,192.5 873,255.5 702,220.5 738,318.5 531,255.5 405,332.5 324,269.5 153,318.5 189,224 18,273 63,192.5"
      fill="#f7f3e8"
    />
    <polygon
      points="18,147 144,98 108,31.5 315,80.5 405,14 486,94.5 738,17.5 657,126 882,87.5 792,192.5 873,255.5 702,220.5 738,318.5 531,255.5 405,332.5 324,269.5 153,318.5 189,224 18,273 63,192.5"
      fill="url(#heroRed)"
      filter="url(#heroRough)"
      transform="translate(14 14) scale(.9689 .92)"
    />
    <polygon
      points="55,168 165,116 250,112 330,92 594,76 742,94 800,140 724,184 500,188 330,176 230,188 128,205 64,184"
      fill="#050505"
      opacity=".16"
    />

    <g transform="translate(0 40)">
      <g transform="translate(-30 60) rotate(-15) scale(1.55)">
        <use href="#star" fill="#050505"/>
        <use href="#star" fill="#f7f3e8" transform="translate(10 10) scale(.8)"/>
      </g>
      <g transform="translate(20 -10) rotate(20) scale(.95)">
        <use href="#star" fill="#f7f3e8"/>
        <use href="#star" fill="#111" transform="translate(12.5 12.5) scale(.75)"/>
      </g>
      <g transform="translate(80 50) rotate(-5) scale(.7)">
        <use href="#star" fill="#f7f3e8"/>
        <use href="#star" fill="#111" transform="translate(12.5 12.5) scale(.75)"/>
      </g>
    </g>
  </g>
</svg>
